<?xml version="1.0" encoding="UTF-8" standalone="no"?>
<!-- Created with Inkscape (http://www.inkscape.org/) -->

<svg
   width="210mm"
   height="297mm"
   viewBox="0 0 210 297"
   version="1.1"
   id="svg1"
   inkscape:version="1.4 (86a8ad7, 2024-10-11)"
   sodipodi:docname="visiorek.svg"
   xml:space="preserve"
   xmlns:inkscape="http://www.inkscape.org/namespaces/inkscape"
   xmlns:sodipodi="http://sodipodi.sourceforge.net/DTD/sodipodi-0.dtd"
   xmlns="http://www.w3.org/2000/svg"
   xmlns:svg="http://www.w3.org/2000/svg"><sodipodi:namedview
     id="namedview1"
     pagecolor="#ffffff"
     bordercolor="#666666"
     borderopacity="1.0"
     inkscape:showpageshadow="2"
     inkscape:pageopacity="0.0"
     inkscape:pagecheckerboard="0"
     inkscape:deskcolor="#d1d1d1"
     inkscape:document-units="mm"
     showguides="true"
     inkscape:zoom="2.67"
     inkscape:cx="127.90262"
     inkscape:cy="53.370787"
     inkscape:window-width="1718"
     inkscape:window-height="1341"
     inkscape:window-x="0"
     inkscape:window-y="0"
     inkscape:window-maximized="0"
     inkscape:current-layer="svg1"
     showgrid="false"><sodipodi:guide
       position="131.598,267.27154"
       orientation="1,0"
       id="guide1"
       inkscape:locked="false" /><sodipodi:guide
       position="146.21151,193.71687"
       orientation="0,-1"
       id="guide2"
       inkscape:locked="false" /><sodipodi:guide
       position="141.50749,254.38921"
       orientation="0,-1"
       id="guide10"
       inkscape:locked="false" /></sodipodi:namedview><defs
     id="defs1" /><g
     inkscape:groupmode="layer"
     id="layer5"
     inkscape:label="Layer 1"
     style="display:inline"><path
       style="fill:none;stroke:#e18aba;stroke-width:0.113518px;stroke-linecap:butt;stroke-linejoin:miter;stroke-opacity:1"
       d="M 18.305942,11.739082 C 19.377937,16.46014 15.440135,25.154584 10.185389,30.233537 4.184859,24.854689 1.0356561,17.18134 1.2145156,10.421087 1.3933752,3.6608348 5.4841605,1.1100861 10.142875,1.1100861 c 4.658715,0 6.504945,3.1763541 6.504945,6.4624299 0,3.286077 -1.975106,4.889339 -4.209084,4.889339 -2.233978,0 -3.4029644,-0.272006 -3.9965028,-2.33838 -0.2121747,-2.5175536 1.2329631,-3.1886987 1.2329631,-3.1886987 0,0 -0.010115,2.5934755 1.8281877,2.5509597 1.838322,-0.042516 1.913222,-1.4282141 1.913222,-2.5509597 0,-1.122746 -0.934122,-2.4234115 -3.868956,-2.4234115 -2.934833,0 -4.6767591,3.2675769 -4.6767591,5.6971422 0,2.429566 2.0802103,5.314498 5.3144971,5.314498 3.234288,0 5.935989,-0.924155 8.120554,-3.783923 z"
       id="path11"
       sodipodi:nodetypes="cczzzzcczzzzzc" /></g></svg>
